<?xml version="1.0" ?><svg height="512px" id="Layer_1" style="enable-background:new 0 0 512 512;" version="1.1" viewBox="0 0 512 512" width="512px" xml:space="preserve" xmlns="http://www.w3.org/2000/svg" xmlns:cc="http://creativecommons.org/ns#" xmlns:dc="http://purl.org/dc/elements/1.1/" xmlns:inkscape="http://www.inkscape.org/namespaces/inkscape" xmlns:rdf="http://www.w3.org/1999/02/22-rdf-syntax-ns#" xmlns:sodipodi="http://sodipodi.sourceforge.net/DTD/sodipodi-0.dtd" xmlns:svg="http://www.w3.org/2000/svg"><defs id="defs19"/><g id="g3021"/><g id="Layer_1_1_"/><g id="Layer_1_1_-7" transform="translate(-819.672,-61.929991)"/><g id="g2989"><rect height="512" id="rect2989" rx="70" ry="70" style="fill:#5eaade;fill-opacity:1;stroke:none" transform="scale(-1,-1)" width="512" x="-512" y="-512"/><path d="m 322.018,106.00108 c 3.85869,0 7.7163,0 11.58257,0 0.49978,0.47382 0.99631,0.60471 1.49285,0 0.62526,0 1.25377,0 1.86822,0 -0.0454,1.00281 0.8016,0.61986 1.22673,0.70965 1.94395,0.36347 3.95065,0.60146 5.87188,1.01795 14.98583,3.1815 27.84921,10.20222 38.62477,20.98535 0.72587,0.74426 1.35439,1.19969 2.54758,0.94547 12.87313,-2.70876 25.24106,-6.83574 37.00969,-12.6546 3.37189,-1.64106 6.64967,-3.41841 10.31472,-5.31152 -2.96622,8.84027 -7.19813,16.60417 -12.81903,23.64111 -5.65552,7.07806 -12.45015,12.93046 -20.10371,17.85903 14.8571,-1.69082 29.03593,-5.58196 43.21908,-11.63449 -0.8016,1.16182 -1.23323,1.81413 -1.69406,2.49024 -9.74139,13.76775 -21.43537,25.67593 -35.16202,35.64232 -1.02768,0.74643 -1.36195,1.52855 -1.34356,2.72824 0.0563,4.67435 0.24448,9.3487 0.10493,14.00466 -0.31263,12.29221 -1.80548,24.40268 -4.33034,36.40714 -4.9978,23.87693 -13.68987,46.42761 -26.03184,67.57956 -11.90493,20.33088 -26.67765,38.35541 -44.49665,53.95461 -16.24393,14.17017 -34.30741,25.55477 -54.21748,34.0824 -16.48517,7.01964 -33.61291,11.89304 -51.37024,14.62344 -6.65617,1.03525 -13.3199,1.87147 -20.01717,2.27497 -0.5344,0.0324 -1.44417,-0.40134 -1.63889,0.65339 -0.99307,0 -1.99046,0 -2.98353,0 -0.74643,-0.56469 -1.51016,-0.47382 -2.25767,0 -6.97961,0 -13.9603,0 -20.94749,0 -0.49978,-0.47382 -0.99631,-0.60471 -1.49285,0 -1.24296,0 -2.50322,0 -3.74835,0 0.0271,-0.0552 0.0833,-0.11034 0.11792,-0.1482 0.0281,-0.0335 0.0736,-0.14388 0.0736,-0.14388 -0.59065,-0.45759 -1.30679,-0.36456 -1.96883,-0.41973 -12.68273,-0.90869 -25.17832,-3.0387 -37.47918,-6.14881 -19.65261,-5.03674 -38.21911,-12.69138 -55.722229,-22.82112 -2.239274,-1.29272 -4.43095,-2.70985 -7.100771,-4.32818 42.20545,4.20161 79.6803,-6.1315 113.39814,-31.24383 -39.63623,-1.5848 -64.29962,-28.82497 -71.40904,-52.68569 11.33592,1.94395 22.52796,1.69082 33.66916,-1.34356 -17.71839,-4.05666 -32.44243,-12.898 -43.8346,-26.88211 -11.41922,-14.04036 -16.849731,-30.11661 -16.909228,-48.41376 5.490008,3.00301 10.915108,5.22173 16.596588,6.76543 5.73774,1.5848 11.55769,2.54649 17.85686,2.71309 -40.180365,-27.98877 -39.635151,-75.76428 -23.22571,-100.86254 4.57591,5.56682 9.42118,10.85994 14.52283,15.89777 14.03495,13.85753 29.65146,25.6954 46.92416,35.35132 29.55409,16.49491 61.29553,25.64348 95.16699,27.62529 0.99307,0.0714 1.28731,-0.0919 1.02011,-1.19969 -0.91302,-3.69318 -1.389,-7.49237 -1.59021,-11.30779 -0.85785,-16.42784 2.86779,-31.7382 12.03367,-45.50487 12.90124,-19.40488 31.061,-30.87926 54.40895,-34.22411 0.41324,-0.0563 1.25702,0.30722 1.23971,-0.67503 0.60796,0 1.24188,0 1.86823,0 0.37862,0.4749 0.74534,0.4749 1.13478,0.001 z" id="path12" style="fill:#ffffff"/></g></svg>